<svg xmlns="http://www.w3.org/2000/svg" xmlns:xlink="http://www.w3.org/1999/xlink" viewBox="0 0 50 30.15">
    <defs>
        <style>
            .cls-1 {
                fill: none;
            }

            .cls-2 {
                clip-path: url(#clip-path);
            }

            .cls-3 {
                fill: #fbfbfb;
            }

            .cls-4 {
                fill: #fefefe;
            }

            .cls-5 {
                fill: #f8f8f8;
            }

            .cls-6 {
                fill: #fdfdfd;
            }

            .cls-7 {
                fill: #f7f7f7;
            }

            .cls-8 {
                fill: #fcfcfc;
            }

            .cls-9 {
                fill: #f3f3f3;
            }

            .cls-10 {
                fill: #f9f9f9;
            }

            .cls-11 {
                fill: #f6f6f6;
            }

            .cls-12 {
                fill: #e7e7e7;
            }

            .cls-13 {
                fill: #f1f1f1;
            }

            .cls-14 {
                fill: #f2f2f2;
            }

            .cls-15 {
                fill: #c1c1c1;
            }

            .cls-16 {
                fill: #e4e4e4;
            }

            .cls-17 {
                fill: #f0f0f0;
            }

            .cls-18 {
                fill: #f5f5f5;
            }

            .cls-19 {
                fill: #fafafa;
            }

            .cls-20 {
                fill: #d1d1d1;
            }

            .cls-21 {
                fill: #dedede;
            }

            .cls-22 {
                fill: #dcdcdc;
            }

            .cls-23 {
                fill: #eaeaea;
            }

            .cls-24 {
                fill: #dfdfdf;
            }

            .cls-25 {
                fill: #eee;
            }

            .cls-26 {
                fill: #d6d6d6;
            }

            .cls-27 {
                fill: #ededed;
            }

            .cls-28 {
                fill: #ececec;
            }

            .cls-29 {
                fill: #cecece;
            }

            .cls-30 {
                fill: #dadada;
            }

            .cls-31 {
                fill: #c3c3c3;
            }

            .cls-32 {
                fill: #bababa;
            }

            .cls-33 {
                fill: #e0e0e0;
            }

            .cls-34 {
                fill: #d2d2d2;
            }

            .cls-35 {
                fill: #e3e3e3;
            }

            .cls-36 {
                fill: #efefef;
            }

            .cls-37 {
                fill: #cfcfcf;
            }

            .cls-38 {
                fill: #d7d7d7;
            }

            .cls-39 {
                fill: #cdcdcd;
            }

            .cls-40 {
                fill: #e2e2e2;
            }

            .cls-41 {
                fill: #ebebeb;
            }

            .cls-42 {
                fill: #d3d3d3;
            }

            .cls-43 {
                fill: #d8d8d8;
            }

            .cls-44 {
                fill: #d0d0d0;
            }

            .cls-45 {
                fill: #d9d9d9;
            }

            .cls-46 {
                fill: #dbdbdb;
            }

            .cls-47 {
                fill: #e1e1e1;
            }

            .cls-48 {
                fill: #e5e5e5;
            }

            .cls-49 {
                fill: #e9e9e9;
            }
        </style>
        <clipPath id="clip-path">
            <rect class="cls-1" x="1.07" y="1.98" width="25" height="25" />
        </clipPath>
    </defs>
    <title>Asset 3</title>
    <g id="Layer_2" data-name="Layer 2">
        <g id="Layer_1-2" data-name="Layer 1">
            <g class="cls-2">
                <rect class="cls-3" x="15.71" y="0.3" width="1.43" height="1.43" transform="translate(4.1 11.91) rotate(-45)" />
                <rect class="cls-4" x="16.68" y="1.26" width="1.43" height="1.43" transform="translate(3.7 12.88) rotate(-45)" />
                <rect class="cls-5" x="13.79" y="0.3" width="1.43" height="1.43" transform="translate(3.53 10.54) rotate(-44.97)" />
                <rect class="cls-3" x="14.75" y="1.26" width="1.43" height="1.43" transform="translate(3.13 11.51) rotate(-45)" />
                <rect class="cls-3" x="15.71" y="2.22" width="1.43" height="1.43" transform="translate(2.74 12.48) rotate(-45.03)" />
                <rect class="cls-6" x="16.68" y="3.19" width="1.43" height="1.43" transform="translate(2.33 13.43) rotate(-44.97)" />
                <rect class="cls-4" x="17.64" y="4.15" width="1.43" height="1.43" transform="translate(1.94 14.41) rotate(-45.01)" />
                <rect class="cls-5" x="11.86" y="0.3" width="1.43" height="1.43" transform="translate(2.97 9.19) rotate(-45)" />
                <polygon class="cls-7" points="12.53 1.98 13.54 2.99 14.55 1.98 13.54 0.96 12.53 1.98" />
                <rect class="cls-5" x="13.79" y="2.22" width="1.43" height="1.43" transform="translate(2.17 11.11) rotate(-45)" />
                <rect class="cls-8" x="14.75" y="3.19" width="1.43" height="1.43" transform="translate(1.77 12.07) rotate(-44.97)" />
                <rect class="cls-8" x="15.71" y="4.15" width="1.43" height="1.43" transform="translate(1.37 13.05) rotate(-45.03)" />
                <rect class="cls-6" x="16.68" y="5.11" width="1.43" height="1.43" transform="translate(0.97 14) rotate(-45)" />
                <rect class="cls-9" x="9.93" y="0.3" width="1.43" height="1.43" transform="translate(2.4 7.83) rotate(-45)" />
                <rect class="cls-5" x="10.9" y="1.26" width="1.43" height="1.43" transform="translate(2.01 8.79) rotate(-45.03)" />
                <rect class="cls-5" x="11.86" y="2.22" width="1.43" height="1.43" transform="translate(1.61 9.76) rotate(-45.03)" />
                <rect class="cls-3" x="12.82" y="3.19" width="1.43" height="1.43" transform="translate(1.2 10.7) rotate(-44.94)" />
                <rect class="cls-8" x="13.79" y="4.15" width="1.43" height="1.43" transform="translate(0.81 11.68) rotate(-45)" />
                <rect class="cls-8" x="14.75" y="5.11" width="1.43" height="1.43" transform="translate(0.41 12.64) rotate(-45)" />
                <rect class="cls-8" x="15.71" y="6.08" width="1.43" height="1.43" transform="translate(0.01 13.61) rotate(-45)" />
                <rect class="cls-6" x="16.68" y="7.04" width="1.43" height="1.43" transform="translate(-0.39 14.58) rotate(-45.03)" />
                <rect class="cls-9" x="8" y="0.3" width="1.43" height="1.43" transform="translate(1.84 6.46) rotate(-45)" />
                <rect class="cls-9" x="8.97" y="1.26" width="1.43" height="1.43" transform="translate(1.44 7.43) rotate(-45)" />
                <rect class="cls-9" x="9.93" y="2.22" width="1.43" height="1.43" transform="translate(1.04 8.39) rotate(-45.03)" />
                <rect class="cls-10" x="10.9" y="3.19" width="1.43" height="1.43" transform="translate(0.64 9.35) rotate(-45)" />
                <rect class="cls-11" x="11.86" y="4.15" width="1.43" height="1.43" transform="translate(0.24 10.32) rotate(-45.03)" />
                <rect class="cls-11" x="12.82" y="5.11" width="1.43" height="1.43" transform="translate(-0.16 11.27) rotate(-44.97)" />
                <rect class="cls-8" x="13.79" y="6.08" width="1.43" height="1.43" transform="translate(-0.56 12.24) rotate(-44.97)" />
                <rect class="cls-8" x="14.75" y="7.04" width="1.43" height="1.43" transform="translate(-0.95 13.22) rotate(-45.03)" />
                <rect class="cls-8" x="15.71" y="8" width="1.43" height="1.43" transform="translate(-1.35 14.17) rotate(-45)" />
                <rect class="cls-8" x="16.68" y="8.97" width="1.43" height="1.43" transform="translate(-1.76 15.12) rotate(-44.97)" />
                <rect class="cls-4" x="17.64" y="9.93" width="1.43" height="1.43" transform="translate(-2.16 16.08) rotate(-44.96)" />
                <rect class="cls-12" x="6.08" y="0.3" width="1.43" height="1.43" transform="translate(1.27 5.1) rotate(-45)" />
                <rect class="cls-13" x="7.04" y="1.26" width="1.43" height="1.43" transform="translate(0.87 6.06) rotate(-45)" />
                <rect class="cls-9" x="8" y="2.22" width="1.43" height="1.43" transform="translate(0.48 7.03) rotate(-45.03)" />
                <rect class="cls-9" x="8.97" y="3.19" width="1.43" height="1.43" transform="translate(0.07 7.99) rotate(-44.97)" />
                <rect class="cls-9" x="9.93" y="4.15" width="1.43" height="1.43" transform="translate(-0.32 8.96) rotate(-45.03)" />
                <rect class="cls-14" x="10.9" y="5.11" width="1.43" height="1.43" transform="translate(-0.72 9.92) rotate(-45.03)" />
                <rect class="cls-14" x="11.86" y="6.08" width="1.43" height="1.43" transform="translate(-1.12 10.88) rotate(-45)" />
                <rect class="cls-10" x="12.82" y="7.04" width="1.43" height="1.43" transform="translate(-1.52 11.84) rotate(-45)" />
                <rect class="cls-8" x="13.79" y="8" width="1.43" height="1.43" transform="translate(-1.92 12.8) rotate(-44.97)" />
                <rect class="cls-8" x="14.75" y="8.97" width="1.43" height="1.43" transform="translate(-2.32 13.76) rotate(-44.97)" />
                <rect class="cls-10" x="15.71" y="9.93" width="1.43" height="1.43" transform="translate(-2.72 14.73) rotate(-44.97)" />
                <rect class="cls-8" x="16.68" y="10.9" width="1.43" height="1.43" transform="translate(-3.12 15.7) rotate(-45)" />
                <rect class="cls-15" x="4.15" y="0.3" width="1.43" height="1.43" transform="translate(0.71 3.74) rotate(-45)" />
                <rect class="cls-12" x="5.11" y="1.26" width="1.43" height="1.43" transform="translate(0.31 4.7) rotate(-45)" />
                <rect class="cls-12" x="6.08" y="2.22" width="1.43" height="1.43" transform="translate(-0.09 5.67) rotate(-45.03)" />
                <rect class="cls-12" x="7.04" y="3.19" width="1.43" height="1.43" transform="translate(-0.49 6.62) rotate(-44.97)" />
                <rect class="cls-13" x="8" y="4.15" width="1.43" height="1.43" transform="translate(-0.89 7.6) rotate(-45.03)" />
                <rect class="cls-16" x="8.97" y="5.11" width="1.43" height="1.43" transform="translate(-1.29 8.55) rotate(-45)" />
                <rect class="cls-17" x="9.93" y="6.08" width="1.43" height="1.43" transform="translate(-1.69 9.52) rotate(-45)" />
                <rect class="cls-18" x="10.9" y="7.04" width="1.43" height="1.43" transform="translate(-2.08 10.5) rotate(-45.06)" />
                <rect class="cls-14" x="11.86" y="8" width="1.43" height="1.43" transform="translate(-2.48 11.45) rotate(-45)" />
                <rect class="cls-7" x="12.82" y="8.97" width="1.43" height="1.43" transform="translate(-2.88 12.39) rotate(-44.94)" />
                <rect class="cls-19" x="13.79" y="9.93" width="1.43" height="1.43" transform="translate(-3.28 13.35) rotate(-44.94)" />
                <rect class="cls-5" x="14.75" y="10.9" width="1.43" height="1.43" transform="translate(-3.68 14.34) rotate(-45)" />
                <rect class="cls-5" x="15.71" y="11.86" width="1.43" height="1.43" transform="translate(-4.08 15.31) rotate(-45.03)" />
                <rect class="cls-6" x="16.68" y="12.82" width="1.43" height="1.43" transform="translate(-4.48 16.25) rotate(-44.97)" />
                <rect class="cls-4" x="17.64" y="13.79" width="1.43" height="1.43" transform="translate(-4.88 17.22) rotate(-44.99)" />
                <rect class="cls-16" x="2.22" y="0.3" width="1.43" height="1.43" transform="translate(0.15 2.37) rotate(-45)" />
                <rect class="cls-20" x="3.19" y="1.26" width="1.43" height="1.43" transform="translate(-0.25 3.34) rotate(-44.97)" />
                <rect class="cls-15" x="4.15" y="2.22" width="1.43" height="1.43" transform="translate(-0.65 4.3) rotate(-45.03)" />
                <rect class="cls-21" x="5.11" y="3.19" width="1.43" height="1.43" transform="translate(-1.05 5.26) rotate(-44.97)" />
                <rect class="cls-22" x="6.08" y="4.15" width="1.43" height="1.43" transform="translate(-1.45 6.23) rotate(-45.03)" />
                <rect class="cls-23" x="7.04" y="5.11" width="1.43" height="1.43" transform="translate(-1.85 7.19) rotate(-45)" />
                <rect class="cls-16" x="8" y="6.08" width="1.43" height="1.43" transform="translate(-2.25 8.16) rotate(-45)" />
                <rect class="cls-24" x="8.97" y="7.04" width="1.43" height="1.43" transform="translate(-2.65 9.13) rotate(-45.03)" />
                <rect class="cls-12" x="9.93" y="8" width="1.43" height="1.43" transform="translate(-3.05 10.08) rotate(-45)" />
                <rect class="cls-14" x="10.9" y="8.97" width="1.43" height="1.43" transform="translate(-3.45 11.05) rotate(-45)" />
                <rect class="cls-25" x="11.86" y="9.93" width="1.43" height="1.43" transform="translate(-3.85 12) rotate(-44.97)" />
                <rect class="cls-7" x="12.82" y="10.9" width="1.43" height="1.43" transform="translate(-4.25 12.96) rotate(-44.97)" />
                <rect class="cls-7" x="13.79" y="11.86" width="1.43" height="1.43" transform="translate(-4.64 13.94) rotate(-45)" />
                <rect class="cls-8" x="14.75" y="12.82" width="1.43" height="1.43" transform="translate(-5.04 14.89) rotate(-44.97)" />
                <rect class="cls-8" x="15.71" y="13.79" width="1.43" height="1.43" transform="translate(-5.44 15.86) rotate(-45)" />
                <rect class="cls-4" x="16.68" y="14.75" width="1.43" height="1.43" transform="translate(-5.84 16.83) rotate(-45)" />
                <rect class="cls-16" x="0.3" y="0.3" width="1.43" height="1.43" transform="translate(-0.42 1.01) rotate(-44.97)" />
                <rect class="cls-16" x="1.26" y="1.26" width="1.43" height="1.43" transform="translate(-0.82 1.97) rotate(-45)" />
                <rect class="cls-16" x="2.22" y="2.22" width="1.43" height="1.43" transform="translate(-1.22 2.94) rotate(-45.03)" />
                <rect class="cls-26" x="3.19" y="3.19" width="1.43" height="1.43" transform="translate(-1.62 3.9) rotate(-44.95)" />
                <rect class="cls-21" x="4.15" y="4.15" width="1.43" height="1.43" transform="translate(-2.02 4.87) rotate(-45.03)" />
                <rect class="cls-21" x="5.11" y="5.11" width="1.43" height="1.43" transform="translate(-2.42 5.83) rotate(-45)" />
                <rect class="cls-21" x="6.08" y="6.08" width="1.43" height="1.43" transform="translate(-2.81 6.79) rotate(-45)" />
                <rect class="cls-12" x="7.04" y="7.04" width="1.43" height="1.43" transform="translate(-3.21 7.76) rotate(-45.03)" />
                <rect class="cls-27" x="8" y="8" width="1.43" height="1.43" transform="translate(-3.61 8.72) rotate(-45)" />
                <rect class="cls-27" x="8.97" y="8.97" width="1.43" height="1.43" transform="translate(-4.01 9.68) rotate(-44.97)" />
                <rect class="cls-28" x="9.93" y="9.93" width="1.43" height="1.43" transform="translate(-4.41 10.64) rotate(-44.97)" />
                <rect class="cls-11" x="10.9" y="10.9" width="1.43" height="1.43" transform="translate(-4.81 11.62) rotate(-45.03)" />
                <rect class="cls-11" x="11.86" y="11.86" width="1.43" height="1.43" transform="translate(-5.21 12.58) rotate(-45.03)" />
                <rect class="cls-9" x="12.82" y="12.82" width="1.43" height="1.43" transform="translate(-5.61 13.52) rotate(-44.94)" />
                <rect class="cls-27" x="13.79" y="13.79" width="1.43" height="1.43" transform="translate(-6.01 14.49) rotate(-44.97)" />
                <rect class="cls-11" x="14.75" y="14.75" width="1.43" height="1.43" transform="translate(-6.41 15.47) rotate(-45)" />
                <rect class="cls-11" x="15.71" y="15.71" width="1.43" height="1.43" transform="translate(-6.81 16.43) rotate(-45)" />
                <rect class="cls-4" x="16.68" y="16.68" width="1.43" height="1.43" transform="translate(-7.2 17.38) rotate(-44.97)" />
                <rect class="cls-16" x="0.3" y="2.22" width="1.43" height="1.43" transform="translate(-1.78 1.58) rotate(-45)" />
                <rect class="cls-29" x="1.26" y="3.19" width="1.43" height="1.43" transform="translate(-2.18 2.54) rotate(-44.97)" />
                <rect class="cls-30" x="2.22" y="4.15" width="1.43" height="1.43" transform="translate(-2.58 3.51) rotate(-45.03)" />
                <rect class="cls-31" x="3.19" y="5.11" width="1.43" height="1.43" transform="translate(-2.98 4.46) rotate(-44.97)" />
                <rect class="cls-32" x="4.15" y="6.08" width="1.43" height="1.43" transform="translate(-3.38 5.43) rotate(-45)" />
                <rect class="cls-33" x="5.11" y="7.04" width="1.43" height="1.43" transform="translate(-3.78 6.4) rotate(-45.03)" />
                <rect class="cls-21" x="6.08" y="8" width="1.43" height="1.43" transform="translate(-4.18 7.36) rotate(-45)" />
                <rect class="cls-21" x="7.04" y="8.97" width="1.43" height="1.43" transform="translate(-4.58 8.31) rotate(-44.97)" />
                <rect class="cls-27" x="8" y="9.93" width="1.43" height="1.43" transform="translate(-4.97 9.28) rotate(-44.97)" />
                <rect class="cls-28" x="8.97" y="10.9" width="1.43" height="1.43" transform="translate(-5.37 10.25) rotate(-45)" />
                <rect class="cls-17" x="9.93" y="11.86" width="1.43" height="1.43" transform="translate(-5.77 11.22) rotate(-45.03)" />
                <rect class="cls-18" x="10.9" y="12.82" width="1.43" height="1.43" transform="translate(-6.17 12.18) rotate(-45)" />
                <rect class="cls-28" x="11.86" y="13.79" width="1.43" height="1.43" transform="translate(-6.57 13.14) rotate(-45)" />
                <rect class="cls-27" x="12.82" y="14.75" width="1.43" height="1.43" transform="translate(-6.97 14.09) rotate(-44.97)" />
                <rect class="cls-28" x="13.79" y="15.71" width="1.43" height="1.43" transform="translate(-7.37 15.05) rotate(-44.97)" />
                <rect class="cls-10" x="14.75" y="16.68" width="1.43" height="1.43" transform="translate(-7.77 16.02) rotate(-44.97)" />
                <rect class="cls-3" x="15.71" y="17.64" width="1.43" height="1.43" transform="translate(-8.17 17.01) rotate(-45.03)" />
                <rect class="cls-30" x="0.3" y="4.15" width="1.43" height="1.43" transform="translate(-3.15 2.14) rotate(-45)" />
                <rect class="cls-34" x="1.26" y="5.11" width="1.43" height="1.43" transform="translate(-3.54 3.1) rotate(-45)" />
                <rect class="cls-34" x="2.22" y="6.08" width="1.43" height="1.43" transform="translate(-3.94 4.07) rotate(-45)" />
                <rect class="cls-15" x="3.19" y="7.04" width="1.43" height="1.43" transform="translate(-4.34 5.03) rotate(-45)" />
                <rect class="cls-26" x="4.15" y="8" width="1.43" height="1.43" transform="translate(-4.74 5.99) rotate(-45)" />
                <rect class="cls-21" x="5.11" y="8.97" width="1.43" height="1.43" transform="translate(-5.14 6.95) rotate(-44.97)" />
                <rect class="cls-35" x="6.08" y="9.93" width="1.43" height="1.43" transform="translate(-5.54 7.92) rotate(-44.97)" />
                <rect class="cls-35" x="7.04" y="10.9" width="1.43" height="1.43" transform="translate(-5.94 8.89) rotate(-45)" />
                <rect class="cls-28" x="8" y="11.86" width="1.43" height="1.43" transform="translate(-6.34 9.86) rotate(-45.03)" />
                <rect class="cls-36" x="8.97" y="12.82" width="1.43" height="1.43" transform="translate(-6.74 10.8) rotate(-44.97)" />
                <rect class="cls-25" x="9.93" y="13.79" width="1.43" height="1.43" transform="translate(-7.14 11.78) rotate(-45)" />
                <rect class="cls-14" x="10.9" y="14.75" width="1.43" height="1.43" transform="translate(-7.54 12.75) rotate(-45.03)" />
                <rect class="cls-14" x="11.86" y="15.71" width="1.43" height="1.43" transform="translate(-7.93 13.7) rotate(-45)" />
                <rect class="cls-27" x="12.82" y="16.68" width="1.43" height="1.43" transform="translate(-8.33 14.65) rotate(-44.94)" />
                <rect class="cls-36" x="13.79" y="17.64" width="1.43" height="1.43" transform="translate(-8.73 15.63) rotate(-45)" />
                <rect class="cls-3" x="14.75" y="18.61" width="1.43" height="1.43" transform="translate(-9.13 16.61) rotate(-45.03)" />
                <rect class="cls-4" x="15.71" y="19.57" width="1.43" height="1.43" transform="translate(-9.53 17.53) rotate(-44.94)" />
                <rect class="cls-34" x="0.3" y="6.08" width="1.43" height="1.43" transform="translate(-4.51 2.7) rotate(-44.97)" />
                <rect class="cls-37" x="1.26" y="7.04" width="1.43" height="1.43" transform="translate(-4.91 3.67) rotate(-45.03)" />
                <rect class="cls-38" x="2.22" y="8" width="1.43" height="1.43" transform="translate(-5.31 4.63) rotate(-45)" />
                <rect class="cls-39" x="3.19" y="8.97" width="1.43" height="1.43" transform="translate(-5.7 5.59) rotate(-44.95)" />
                <rect class="cls-33" x="4.15" y="9.93" width="1.43" height="1.43" transform="translate(-6.1 6.55) rotate(-44.97)" />
                <rect class="cls-40" x="5.11" y="10.9" width="1.43" height="1.43" transform="translate(-6.5 7.52) rotate(-45)" />
                <rect class="cls-40" x="6.08" y="11.86" width="1.43" height="1.43" transform="translate(-6.9 8.49) rotate(-45.03)" />
                <rect class="cls-28" x="7.04" y="12.82" width="1.43" height="1.43" transform="translate(-7.3 9.44) rotate(-44.97)" />
                <rect class="cls-14" x="8" y="13.79" width="1.43" height="1.43" transform="translate(-7.7 10.41) rotate(-45)" />
                <rect class="cls-27" x="8.97" y="14.75" width="1.43" height="1.43" transform="translate(-8.1 11.38) rotate(-45)" />
                <rect class="cls-41" x="9.93" y="15.71" width="1.43" height="1.43" transform="translate(-8.5 12.34) rotate(-45)" />
                <rect class="cls-28" x="10.9" y="16.68" width="1.43" height="1.43" transform="translate(-8.9 13.3) rotate(-45)" />
                <rect class="cls-25" x="11.86" y="17.64" width="1.43" height="1.43" transform="translate(-9.3 14.28) rotate(-45.03)" />
                <rect class="cls-14" x="12.82" y="18.61" width="1.43" height="1.43" transform="translate(-9.7 15.23) rotate(-45)" />
                <rect class="cls-5" x="13.79" y="19.57" width="1.43" height="1.43" transform="translate(-10.09 16.16) rotate(-44.91)" />
                <rect class="cls-38" x="0.3" y="8" width="1.43" height="1.43" transform="translate(-5.87 3.27) rotate(-44.97)" />
                <rect class="cls-38" x="1.26" y="8.97" width="1.43" height="1.43" transform="translate(-6.27 4.23) rotate(-44.97)" />
                <rect class="cls-30" x="2.22" y="9.93" width="1.43" height="1.43" transform="translate(-6.67 5.19) rotate(-44.97)" />
                <rect class="cls-40" x="3.19" y="10.9" width="1.43" height="1.43" transform="translate(-7.07 6.15) rotate(-44.97)" />
                <rect class="cls-22" x="4.15" y="11.86" width="1.43" height="1.43" transform="translate(-7.47 7.13) rotate(-45.03)" />
                <rect class="cls-42" x="5.11" y="12.82" width="1.43" height="1.43" transform="translate(-7.86 8.08) rotate(-44.97)" />
                <rect class="cls-34" x="6.08" y="13.79" width="1.43" height="1.43" transform="translate(-8.27 9.05) rotate(-45)" />
                <rect class="cls-43" x="7.04" y="14.75" width="1.43" height="1.43" transform="translate(-8.66 10.01) rotate(-45)" />
                <rect class="cls-27" x="8" y="15.71" width="1.43" height="1.43" transform="translate(-9.06 10.98) rotate(-45)" />
                <rect class="cls-36" x="8.97" y="16.68" width="1.43" height="1.43" transform="translate(-9.46 11.93) rotate(-44.97)" />
                <rect class="cls-44" x="9.93" y="17.64" width="1.43" height="1.43" transform="translate(-9.86 12.92) rotate(-45.03)" />
                <rect class="cls-25" x="10.9" y="18.61" width="1.43" height="1.43" transform="translate(-10.27 13.89) rotate(-45.06)" />
                <rect class="cls-17" x="11.86" y="19.57" width="1.43" height="1.43" transform="translate(-10.65 14.81) rotate(-44.94)" />
                <rect class="cls-5" x="12.82" y="20.53" width="1.43" height="1.43" transform="translate(-11.06 15.78) rotate(-44.97)" />
                <rect class="cls-30" x="0.3" y="9.93" width="1.43" height="1.43" transform="translate(-7.23 3.83) rotate(-44.95)" />
                <rect class="cls-24" x="1.26" y="10.9" width="1.43" height="1.43" transform="translate(-7.63 4.8) rotate(-45)" />
                <rect class="cls-24" x="2.22" y="11.86" width="1.43" height="1.43" transform="translate(-8.03 5.77) rotate(-45.03)" />
                <rect class="cls-45" x="3.19" y="12.82" width="1.43" height="1.43" transform="translate(-8.42 6.71) rotate(-44.95)" />
                <rect class="cls-46" x="4.15" y="13.79" width="1.43" height="1.43" transform="translate(-8.83 7.69) rotate(-45)" />
                <rect class="cls-22" x="5.11" y="14.75" width="1.43" height="1.43" transform="translate(-9.23 8.65) rotate(-45)" />
                <rect class="cls-22" x="6.08" y="15.71" width="1.43" height="1.43" transform="translate(-9.63 9.61) rotate(-45)" />
                <rect class="cls-23" x="7.04" y="16.68" width="1.43" height="1.43" transform="translate(-10.02 10.57) rotate(-44.97)" />
                <rect class="cls-13" x="8" y="17.64" width="1.43" height="1.43" transform="translate(-10.43 11.55) rotate(-45.03)" />
                <rect class="cls-13" x="8.97" y="18.61" width="1.43" height="1.43" transform="translate(-10.83 12.52) rotate(-45.03)" />
                <rect class="cls-40" x="9.93" y="19.57" width="1.43" height="1.43" transform="translate(-11.22 13.45) rotate(-44.94)" />
                <rect class="cls-11" x="10.9" y="20.53" width="1.43" height="1.43" transform="translate(-11.63 14.44) rotate(-45.03)" />
                <rect class="cls-8" x="11.86" y="21.5" width="1.43" height="1.43" transform="translate(-12.02 15.4) rotate(-45)" />
                <rect class="cls-4" x="12.82" y="22.46" width="1.43" height="1.43" transform="translate(-12.41 16.33) rotate(-44.94)" />
                <rect class="cls-24" x="0.3" y="11.86" width="1.43" height="1.43" transform="translate(-8.6 4.4) rotate(-45)" />
                <rect class="cls-40" x="1.26" y="12.82" width="1.43" height="1.43" transform="translate(-8.99 5.36) rotate(-44.97)" />
                <rect class="cls-40" x="2.22" y="13.79" width="1.43" height="1.43" transform="translate(-9.39 6.33) rotate(-45)" />
                <rect class="cls-47" x="3.19" y="14.75" width="1.43" height="1.43" transform="translate(-9.79 7.28) rotate(-44.97)" />
                <rect class="cls-22" x="4.15" y="15.71" width="1.43" height="1.43" transform="translate(-10.19 8.25) rotate(-45)" />
                <rect class="cls-40" x="5.11" y="16.68" width="1.43" height="1.43" transform="translate(-10.59 9.21) rotate(-44.97)" />
                <rect class="cls-40" x="6.08" y="17.64" width="1.43" height="1.43" transform="translate(-10.99 10.19) rotate(-45.03)" />
                <rect class="cls-27" x="7.04" y="18.61" width="1.43" height="1.43" transform="translate(-11.39 11.15) rotate(-45.03)" />
                <rect class="cls-45" x="8" y="19.57" width="1.43" height="1.43" transform="translate(-11.78 12.09) rotate(-44.94)" />
                <rect class="cls-27" x="8.97" y="20.53" width="1.43" height="1.43" transform="translate(-12.19 13.07) rotate(-45)" />
                <rect class="cls-19" x="9.93" y="21.5" width="1.43" height="1.43" transform="translate(-12.59 14.03) rotate(-45)" />
                <rect class="cls-8" x="10.9" y="22.46" width="1.43" height="1.43" transform="translate(-12.99 15) rotate(-45)" />
                <rect class="cls-6" x="11.86" y="23.42" width="1.43" height="1.43" transform="translate(-13.39 15.97) rotate(-45.03)" />
                <rect class="cls-40" x="0.3" y="13.79" width="1.43" height="1.43" transform="translate(-9.95 4.96) rotate(-44.97)" />
                <rect class="cls-27" x="1.26" y="14.75" width="1.43" height="1.43" transform="translate(-10.36 5.93) rotate(-45)" />
                <rect class="cls-27" x="2.22" y="15.71" width="1.43" height="1.43" transform="translate(-10.76 6.89) rotate(-45)" />
                <rect class="cls-48" x="3.19" y="16.68" width="1.43" height="1.43" transform="translate(-11.15 7.84) rotate(-44.95)" />
                <rect class="cls-33" x="4.15" y="17.64" width="1.43" height="1.43" transform="translate(-11.56 8.83) rotate(-45.03)" />
                <rect class="cls-40" x="5.11" y="18.61" width="1.43" height="1.43" transform="translate(-11.96 9.79) rotate(-45.03)" />
                <rect class="cls-13" x="6.08" y="19.57" width="1.43" height="1.43" transform="translate(-12.34 10.72) rotate(-44.94)" />
                <rect class="cls-14" x="7.04" y="20.53" width="1.43" height="1.43" transform="translate(-12.75 11.71) rotate(-45)" />
                <rect class="cls-7" x="8" y="21.5" width="1.43" height="1.43" transform="translate(-13.15 12.67) rotate(-45)" />
                <rect class="cls-7" x="8.97" y="22.46" width="1.43" height="1.43" transform="translate(-13.55 13.62) rotate(-44.97)" />
                <rect class="cls-3" x="9.93" y="23.42" width="1.43" height="1.43" transform="translate(-13.95 14.61) rotate(-45.03)" />
                <rect class="cls-27" x="0.3" y="15.71" width="1.43" height="1.43" transform="translate(-11.32 5.52) rotate(-44.97)" />
                <rect class="cls-17" x="1.26" y="16.68" width="1.43" height="1.43" transform="translate(-11.71 6.48) rotate(-44.97)" />
                <rect class="cls-8" x="2.22" y="17.64" width="1.43" height="1.43" transform="translate(-12.13 7.46) rotate(-45.03)" />
                <rect class="cls-49" x="3.19" y="18.61" width="1.43" height="1.43" transform="translate(-12.52 8.42) rotate(-45)" />
                <rect class="cls-10" x="4.15" y="19.57" width="1.43" height="1.43" transform="translate(-12.91 9.36) rotate(-44.95)" />
                <rect class="cls-8" x="5.11" y="20.53" width="1.43" height="1.43" transform="translate(-13.32 10.34) rotate(-45)" />
                <rect class="cls-6" x="6.08" y="21.5" width="1.43" height="1.43" transform="translate(-13.72 11.31) rotate(-45)" />
                <rect class="cls-8" x="7.04" y="22.46" width="1.43" height="1.43" transform="translate(-14.11 12.26) rotate(-44.97)" />
                <rect class="cls-8" x="8" y="23.42" width="1.43" height="1.43" transform="translate(-14.52 13.25) rotate(-45.03)" />
                <rect class="cls-8" x="0.3" y="17.64" width="1.43" height="1.43" transform="translate(-12.68 6.09) rotate(-45)" />
                <rect class="cls-8" x="1.26" y="18.61" width="1.43" height="1.43" transform="translate(-13.09 7.06) rotate(-45.03)" />
                <rect class="cls-6" x="5.11" y="22.46" width="1.43" height="1.43" transform="translate(-14.67 10.9) rotate(-44.97)" />
            </g>
        </g>
    </g>
</svg>