<?xml version="1.0" encoding="utf-8"?>
<!-- Generator: Adobe Illustrator 22.1.0, SVG Export Plug-In . SVG Version: 6.00 Build 0)  -->
<svg version="1.1" xmlns="http://www.w3.org/2000/svg" xmlns:xlink="http://www.w3.org/1999/xlink" x="0px" y="0px"
	 viewBox="0 0 500 500" style="enable-background:new 0 0 500 500;" xml:space="preserve">
<style type="text/css">
	.st0{clip-path:url(#SVGID_2_);}
	.st1{fill:url(#SVGID_3_);}
	.st2{clip-path:url(#SVGID_5_);}
	.st3{opacity:0.1;fill:url(#SVGID_6_);}
	.st4{opacity:0.1;fill:url(#SVGID_7_);}
	.st5{opacity:0.2;fill:url(#SVGID_8_);}
	.st6{opacity:0.3;fill:url(#SVGID_9_);}
	.st7{opacity:0.1;fill:url(#SVGID_10_);}
	.st8{opacity:0.1;fill:url(#SVGID_11_);}
	.st9{opacity:0.1;fill:url(#SVGID_12_);}
	.st10{opacity:0.1;fill:url(#SVGID_13_);}
	.st11{opacity:0.2;fill:url(#SVGID_14_);}
	.st12{opacity:0.2;fill:url(#SVGID_15_);}
	.st13{opacity:0.2;fill:url(#SVGID_16_);}
	.st14{opacity:0.2;fill:url(#SVGID_17_);}
	.st15{opacity:0.3;fill:url(#SVGID_18_);}
	.st16{opacity:0.3;fill:url(#SVGID_19_);}
	.st17{opacity:0.3;fill:url(#SVGID_20_);}
	.st18{opacity:0.3;fill:url(#SVGID_21_);}
	.st19{opacity:0.4;fill:url(#SVGID_22_);}
	.st20{opacity:0.4;fill:url(#SVGID_23_);}
	.st21{opacity:0.4;fill:url(#SVGID_24_);}
	.st22{opacity:0.4;fill:url(#SVGID_25_);}
	.st23{opacity:0.4;fill:url(#SVGID_26_);}
	.st24{opacity:0.7;fill:url(#SVGID_27_);}
	.st25{fill:#FFFFFF;}
</style>
<g id="BACKGROUND_2">
</g>
<g id="BACKGROUND_1">
	<g>
		<defs>
			<rect id="SVGID_1_" x="0" width="500" height="500"/>
		</defs>
		<clipPath id="SVGID_2_">
			<use xlink:href="#SVGID_1_"  style="overflow:visible;"/>
		</clipPath>
		<g class="st0">
			<linearGradient id="SVGID_3_" gradientUnits="userSpaceOnUse" x1="28.2775" y1="25.4101" x2="492.2771" y2="495.4103">
				<stop  offset="0" style="stop-color:#FFFFFF"/>
				<stop  offset="0.2797" style="stop-color:#A7E0E3"/>
				<stop  offset="0.5672" style="stop-color:#2BB2CA"/>
				<stop  offset="1" style="stop-color:#2B75A4"/>
			</linearGradient>
			<rect x="-125" class="st1" width="750" height="500"/>
			<g>
				<defs>
					<rect id="SVGID_4_" x="-125" width="750" height="500"/>
				</defs>
				<clipPath id="SVGID_5_">
					<use xlink:href="#SVGID_4_"  style="overflow:visible;"/>
				</clipPath>
				<g class="st2">
					<linearGradient id="SVGID_6_" gradientUnits="userSpaceOnUse" x1="256.9615" y1="128.8137" x2="592.9615" y2="324.8134">
						<stop  offset="0.1109" style="stop-color:#FFFFFF;stop-opacity:0"/>
						<stop  offset="1" style="stop-color:#FFFFFF"/>
					</linearGradient>
					<polygon class="st3" points="312,422.6 198.9,226.8 312,31.1 538,31.1 651.1,226.8 538,422.6 					"/>
					<linearGradient id="SVGID_7_" gradientUnits="userSpaceOnUse" x1="110.8088" y1="421.1083" x2="446.8089" y2="617.108">
						<stop  offset="0.1109" style="stop-color:#FFFFFF;stop-opacity:0"/>
						<stop  offset="1" style="stop-color:#FFFFFF"/>
					</linearGradient>
					<polygon class="st4" points="165.8,714.9 52.8,519.1 165.8,323.3 391.9,323.3 504.9,519.1 391.9,714.9 					"/>
					<linearGradient id="SVGID_8_" gradientUnits="userSpaceOnUse" x1="-39.1028" y1="401.2655" x2="241.1957" y2="564.7727">
						<stop  offset="0.1109" style="stop-color:#FFFFFF;stop-opacity:0"/>
						<stop  offset="1" style="stop-color:#FFFFFF"/>
					</linearGradient>
					<polygon class="st5" points="6.8,646.4 -87.5,483 6.8,319.7 195.4,319.7 289.7,483 195.4,646.4 					"/>
					<linearGradient id="SVGID_9_" gradientUnits="userSpaceOnUse" x1="-91.0327" y1="392.5949" x2="105.628" y2="507.3135">
						<stop  offset="0.1109" style="stop-color:#FFFFFF;stop-opacity:0"/>
						<stop  offset="1" style="stop-color:#FFFFFF"/>
					</linearGradient>
					<polygon class="st6" points="-58.8,564.6 -125,450 -58.8,335.4 73.5,335.4 139.6,450 73.5,564.6 					"/>
					<linearGradient id="SVGID_10_" gradientUnits="userSpaceOnUse" x1="85.6926" y1="222.2545" x2="432.2132" y2="424.3912">
						<stop  offset="0.1109" style="stop-color:#FFFFFF;stop-opacity:0"/>
						<stop  offset="1" style="stop-color:#FFFFFF"/>
					</linearGradient>
					<polygon class="st7" points="142.4,525.3 25.8,323.3 142.4,121.4 375.6,121.4 492.1,323.3 375.6,525.3 					"/>
					<linearGradient id="SVGID_11_" gradientUnits="userSpaceOnUse" x1="158.4961" y1="302.1533" x2="595.1462" y2="556.8655">
						<stop  offset="0.1109" style="stop-color:#FFFFFF;stop-opacity:0"/>
						<stop  offset="1" style="stop-color:#FFFFFF"/>
					</linearGradient>
					<polygon class="st8" points="230,684 83.1,429.5 230,175.1 523.8,175.1 670.7,429.5 523.8,684 					"/>
					<linearGradient id="SVGID_12_" gradientUnits="userSpaceOnUse" x1="233.6771" y1="-176.1992" x2="638.6988" y2="60.0631">
						<stop  offset="0.1109" style="stop-color:#FFFFFF;stop-opacity:0"/>
						<stop  offset="1" style="stop-color:#FFFFFF"/>
					</linearGradient>
					<polygon class="st9" points="300,178 163.7,-58 300,-294 572.5,-294 708.7,-58 572.5,178 					"/>
					<linearGradient id="SVGID_13_" gradientUnits="userSpaceOnUse" x1="155.4655" y1="-6.0482" x2="574.5693" y2="238.4287">
						<stop  offset="0.1109" style="stop-color:#FFFFFF;stop-opacity:0"/>
						<stop  offset="1" style="stop-color:#FFFFFF"/>
					</linearGradient>
					<polygon class="st10" points="224.1,360.4 83.1,116.2 224.1,-128 506.1,-128 647.1,116.2 506.1,360.4 					"/>
					<linearGradient id="SVGID_14_" gradientUnits="userSpaceOnUse" x1="180.9254" y1="-91.6916" x2="549.121" y2="123.0889">
						<stop  offset="0.1109" style="stop-color:#FFFFFF;stop-opacity:0"/>
						<stop  offset="1" style="stop-color:#FFFFFF"/>
					</linearGradient>
					<polygon class="st11" points="241.2,230.3 117.3,15.7 241.2,-198.8 488.9,-198.8 612.8,15.7 488.9,230.3 					"/>
					<linearGradient id="SVGID_15_" gradientUnits="userSpaceOnUse" x1="93.2397" y1="18.8608" x2="426.9606" y2="213.531">
						<stop  offset="0.1109" style="stop-color:#FFFFFF;stop-opacity:0"/>
						<stop  offset="1" style="stop-color:#FFFFFF"/>
					</linearGradient>
					<polygon class="st12" points="147.9,310.7 35.6,116.2 147.9,-78.2 372.4,-78.2 484.7,116.2 372.4,310.7 					"/>
					<linearGradient id="SVGID_16_" gradientUnits="userSpaceOnUse" x1="-20.8367" y1="172.265" x2="367.2531" y2="398.6504">
						<stop  offset="0.1109" style="stop-color:#FFFFFF;stop-opacity:0"/>
						<stop  offset="1" style="stop-color:#FFFFFF"/>
					</linearGradient>
					<polygon class="st13" points="42.7,511.6 -87.9,285.5 42.7,59.3 303.8,59.3 434.4,285.5 303.8,511.6 					"/>
					<linearGradient id="SVGID_17_" gradientUnits="userSpaceOnUse" x1="-103.7456" y1="193.2288" x2="269.8155" y2="411.1391">
						<stop  offset="0.1109" style="stop-color:#FFFFFF;stop-opacity:0"/>
						<stop  offset="1" style="stop-color:#FFFFFF"/>
					</linearGradient>
					<polygon class="st14" points="-42.6,519.9 -168.3,302.2 -42.6,84.5 208.8,84.5 334.4,302.2 208.8,519.9 					"/>
					<linearGradient id="SVGID_18_" gradientUnits="userSpaceOnUse" x1="91.6789" y1="-133.4089" x2="422.9225" y2="59.8163">
						<stop  offset="0.1109" style="stop-color:#FFFFFF;stop-opacity:0"/>
						<stop  offset="1" style="stop-color:#FFFFFF"/>
					</linearGradient>
					<polygon class="st15" points="145.9,156.2 34.5,-36.8 145.9,-229.8 368.8,-229.8 480.2,-36.8 368.8,156.2 					"/>
					<linearGradient id="SVGID_19_" gradientUnits="userSpaceOnUse" x1="37.5037" y1="36.5915" x2="289.8819" y2="183.8119">
						<stop  offset="0.1109" style="stop-color:#FFFFFF;stop-opacity:0"/>
						<stop  offset="1" style="stop-color:#FFFFFF"/>
					</linearGradient>
					<polygon class="st16" points="78.8,257.3 -6.1,110.2 78.8,-36.8 248.6,-36.8 333.5,110.2 248.6,257.3 					"/>
					<linearGradient id="SVGID_20_" gradientUnits="userSpaceOnUse" x1="-55.2165" y1="115.0417" x2="257.3021" y2="297.344">
						<stop  offset="0.1109" style="stop-color:#FFFFFF;stop-opacity:0"/>
						<stop  offset="1" style="stop-color:#FFFFFF"/>
					</linearGradient>
					<polygon class="st17" points="-4.1,388.3 -109.2,206.2 -4.1,24.1 206.2,24.1 311.4,206.2 206.2,388.3 					"/>
					<linearGradient id="SVGID_21_" gradientUnits="userSpaceOnUse" x1="-124.7923" y1="264.3876" x2="125.2579" y2="410.25">
						<stop  offset="0.1109" style="stop-color:#FFFFFF;stop-opacity:0"/>
						<stop  offset="1" style="stop-color:#FFFFFF"/>
					</linearGradient>
					<polygon class="st18" points="-83.9,483 -168,337.3 -83.9,191.6 84.4,191.6 168.5,337.3 84.4,483 					"/>
					<linearGradient id="SVGID_22_" gradientUnits="userSpaceOnUse" x1="-111.9539" y1="85.3252" x2="149.4052" y2="237.7845">
						<stop  offset="0.1109" style="stop-color:#FFFFFF;stop-opacity:0"/>
						<stop  offset="1" style="stop-color:#FFFFFF"/>
					</linearGradient>
					<polygon class="st19" points="-69.2,313.9 -157.1,161.6 -69.2,9.3 106.7,9.3 194.6,161.6 106.7,313.9 					"/>
					<linearGradient id="SVGID_23_" gradientUnits="userSpaceOnUse" x1="-2.3048" y1="-115.5671" x2="267.7811" y2="41.9827">
						<stop  offset="0.1109" style="stop-color:#FFFFFF;stop-opacity:0"/>
						<stop  offset="1" style="stop-color:#FFFFFF"/>
					</linearGradient>
					<polygon class="st20" points="41.9,120.6 -49,-36.8 41.9,-194.2 223.6,-194.2 314.5,-36.8 223.6,120.6 					"/>
					<linearGradient id="SVGID_24_" gradientUnits="userSpaceOnUse" x1="-101.6123" y1="-4.6429" x2="132.7243" y2="132.0533">
						<stop  offset="0.1109" style="stop-color:#FFFFFF;stop-opacity:0"/>
						<stop  offset="1" style="stop-color:#FFFFFF"/>
					</linearGradient>
					<polygon class="st21" points="-63.3,200.3 -142.1,63.7 -63.3,-72.8 94.4,-72.8 173.3,63.7 94.4,200.3 					"/>
					<linearGradient id="SVGID_25_" gradientUnits="userSpaceOnUse" x1="-232.0054" y1="121.6803" x2="7.7786" y2="261.5541">
						<stop  offset="0.1109" style="stop-color:#FFFFFF;stop-opacity:0"/>
						<stop  offset="1" style="stop-color:#FFFFFF"/>
					</linearGradient>
					<polygon class="st22" points="-192.8,331.4 -273.4,191.6 -192.8,51.9 -31.4,51.9 49.2,191.6 -31.4,331.4 					"/>
					<linearGradient id="SVGID_26_" gradientUnits="userSpaceOnUse" x1="-317.0536" y1="200.0415" x2="-2.835" y2="383.3354">
						<stop  offset="0.1109" style="stop-color:#FFFFFF;stop-opacity:0"/>
						<stop  offset="1" style="stop-color:#FFFFFF"/>
					</linearGradient>
					<polygon class="st23" points="-265.6,474.8 -371.3,291.7 -265.6,108.6 -54.2,108.6 51.5,291.7 -54.2,474.8 					"/>
					<linearGradient id="SVGID_27_" gradientUnits="userSpaceOnUse" x1="-284.1045" y1="-78.8964" x2="-0.1345" y2="86.7525">
						<stop  offset="0.1109" style="stop-color:#FFFFFF;stop-opacity:0"/>
						<stop  offset="1" style="stop-color:#FFFFFF"/>
					</linearGradient>
					<polygon class="st24" points="-237.6,169.4 -333.2,3.9 -237.6,-161.5 -46.6,-161.5 49,3.9 -46.6,169.4 					"/>
				</g>
			</g>
		</g>
	</g>
</g>
<g id="DESIGNED_BY_FREEPIK">
	<g>
		<g>
			<g>
				<g id="XMLID_1_">
					<g id="XMLID_20_">
						<path id="XMLID_28_" class="st25" d="M996.1,465.5c-0.4,0.4-0.8,0.9-1.1,1.5l-0.5-0.2c-0.1-0.3-0.3-0.5-0.7-0.5
							c-0.3,0-0.6,0.3-0.5,0.7c0,0.3,0.3,0.6,0.7,0.5c0.1,0,0.1,0,0.2-0.1l0.5,0.2c-0.3,0.6-0.4,1.1-0.5,1.7l0.7,0.1
							c0.2-1.3,0.8-2.5,1.8-3.5L996.1,465.5z"/>
						<path id="XMLID_27_" class="st25" d="M1001.6,463.2c-0.2,0-0.3,0-0.5,0l-0.1-0.6c0.2-0.1,0.3-0.4,0.3-0.6
							c0-0.4-0.4-0.7-0.8-0.6c-0.4,0-0.7,0.4-0.6,0.8c0,0.3,0.2,0.5,0.4,0.6l0.1,0.6c-0.7,0.1-1.4,0.3-2.1,0.6l0.3,0.7
							c0.9-0.4,1.9-0.7,3-0.7c0.5,0,1,0.1,1.5,0.2l0.2-0.7C1002.7,463.2,1002.1,463.2,1001.6,463.2z"/>
						<path id="XMLID_26_" class="st25" d="M1008.2,465.7c0.3,0,0.6-0.3,0.5-0.7c0-0.3-0.3-0.6-0.7-0.5c-0.3,0-0.5,0.3-0.5,0.6
							l-0.4,0.4c-0.4-0.4-0.9-0.8-1.4-1.1l-0.4,0.6c1.1,0.7,2,1.7,2.6,2.9l0.7-0.3c-0.3-0.6-0.6-1.1-0.9-1.5l0.4-0.4
							C1008.1,465.7,1008.1,465.7,1008.2,465.7z"/>
						<path id="XMLID_25_" class="st25" d="M1001,473.4c-0.4,0-0.8,0-1.2,0c-0.9,0-1.7-0.1-2.5-0.2c-0.4-0.1-0.8-0.2-1.3-0.3
							c1,1.9,3.1,3.1,5.4,3.1c2.9,0,5.3-1.9,5.9-4.5c-0.7,0.4-1.5,0.8-2.5,1.1C1003.8,473,1002.5,473.3,1001,473.4z"/>
						<path id="XMLID_21_" class="st25" d="M1001.6,464.7c-3.4,0-6.1,2.7-6.1,5.9c0,0.4,0,0.8,0.1,1.3c0.7,0.5,2.7,0.9,5.3,0.7
							c2.9-0.2,5.3-1,6.7-2.2c0-0.2,0-0.4,0-0.6C1007.2,466.9,1004.7,464.7,1001.6,464.7z M999.4,471.2c-1,0-1.8-0.8-1.8-1.8
							c0-1,0.8-1.8,1.8-1.8c1,0,1.8,0.8,1.8,1.8C1001.3,470.4,1000.5,471.2,999.4,471.2z M1004.2,470.3c-0.8,0-1.4-0.6-1.4-1.4
							s0.6-1.4,1.4-1.4c0.8,0,1.4,0.6,1.4,1.4S1004.9,470.3,1004.2,470.3z"/>
					</g>
					<path id="XMLID_18_" class="st25" d="M1017.6,466.5c-0.3-0.1-0.8-0.3-1.4-0.2c-0.6,0.1-0.8,0.3-0.8,1v0.9h2.2v1.7h-2.2v5.5
						h-1.9v-5.5h-1.3v-1.7h1.3v-0.9c0-1.7,0.9-2.8,2.6-2.8c0.6,0,1.2,0.1,1.6,0.3L1017.6,466.5z"/>
					<path id="XMLID_16_" class="st25" d="M1022.3,469.9c-0.2,0-0.4,0-0.5,0c-0.9,0-1.5,0.5-1.5,1.6v3.9h-1.9v-7.2h1.9v0.8
						c0.5-0.7,1.1-1,2-1c0.4,0,0.8,0.1,1.1,0.3L1022.3,469.9z"/>
					<path id="XMLID_13_" class="st25" d="M1030,471.8c0,0.2,0,0.5,0,0.7h-5.1c0.2,1,0.9,1.5,1.8,1.5c0.6,0,1.3-0.3,1.8-0.7l1.1,1.2
						c-0.8,0.7-1.9,1.1-3.1,1.1c-2.2,0-3.7-1.5-3.7-3.8c0-2.3,1.5-3.8,3.6-3.8C1028.5,468,1030,469.5,1030,471.8z M1024.9,471.1h3.2
						c-0.2-0.9-0.7-1.4-1.6-1.4C1025.6,469.7,1025,470.2,1024.9,471.1z"/>
					<path id="XMLID_10_" class="st25" d="M1037.6,471.8c0,0.2,0,0.5,0,0.7h-5.1c0.2,1,0.9,1.5,1.8,1.5c0.6,0,1.3-0.3,1.8-0.7
						l1.1,1.2c-0.8,0.7-1.9,1.1-3.1,1.1c-2.2,0-3.7-1.5-3.7-3.8c0-2.3,1.5-3.8,3.6-3.8C1036.2,468,1037.6,469.5,1037.6,471.8z
						 M1032.5,471.1h3.2c-0.2-0.9-0.7-1.4-1.6-1.4C1033.2,469.7,1032.7,470.2,1032.5,471.1z"/>
					<path id="XMLID_7_" class="st25" d="M1046,471.8c0,2.2-1.5,3.8-3.5,3.8c-1,0-1.6-0.4-2.1-0.9v3.7h-1.9v-10.1h1.9v0.8
						c0.5-0.6,1.2-1,2.1-1C1044.5,468,1046,469.6,1046,471.8z M1040.3,471.8c0,1.1,0.7,2,1.8,2c1.1,0,1.9-0.9,1.9-2
						c0-1.1-0.7-2-1.9-2C1041,469.8,1040.3,470.6,1040.3,471.8z"/>
					<path id="XMLID_4_" class="st25" d="M1049.1,465.8c0,0.7-0.5,1.2-1.2,1.2c-0.7,0-1.2-0.5-1.2-1.2c0-0.7,0.5-1.2,1.2-1.2
						C1048.5,464.6,1049.1,465.1,1049.1,465.8z M1048.8,475.4h-1.9v-7.2h1.9V475.4z"/>
					<path id="XMLID_2_" class="st25" d="M1052,470.7l2.7-2.6h2.4l-3.5,3.4l3.5,3.8h-2.4l-2.7-2.9v2.9h-1.9v-10.7h1.9V470.7z"/>
				</g>
				<g>
					<path class="st25" d="M920.4,475.3v-1.1c-0.5,0.7-1.4,1.2-2.4,1.2c-1.8,0-3.1-1.4-3.1-3.7c0-2.3,1.3-3.7,3.1-3.7
						c1,0,1.8,0.5,2.4,1.2v-3.8h1.1v9.8H920.4z M920.4,473.4v-3.2c-0.4-0.6-1.2-1.1-2.1-1.1c-1.4,0-2.3,1.2-2.3,2.7
						c0,1.6,0.8,2.7,2.3,2.7C919.2,474.5,920,474,920.4,473.4z"/>
					<path class="st25" d="M922.9,471.7c0-2.1,1.5-3.7,3.5-3.7c2.1,0,3.4,1.7,3.4,3.8v0.3h-5.7c0.1,1.3,1,2.4,2.5,2.4
						c0.8,0,1.6-0.3,2.2-0.9l0.5,0.7c-0.7,0.7-1.7,1.1-2.8,1.1C924.4,475.5,922.9,474,922.9,471.7z M926.4,468.9
						c-1.5,0-2.3,1.3-2.3,2.4h4.6C928.7,470.3,928,468.9,926.4,468.9z"/>
					<path class="st25" d="M930.6,474.4l0.6-0.8c0.5,0.5,1.4,1,2.3,1c1.1,0,1.7-0.5,1.7-1.2c0-1.7-4.4-0.7-4.4-3.3c0-1.1,1-2,2.6-2
						c1.2,0,2.1,0.5,2.6,1l-0.5,0.8c-0.4-0.5-1.2-0.9-2.1-0.9c-1,0-1.6,0.5-1.6,1.1c0,1.6,4.4,0.5,4.4,3.3c0,1.2-1,2.1-2.8,2.1
						C932.3,475.5,931.3,475.1,930.6,474.4z"/>
					<path class="st25" d="M937.5,466.5c0-0.4,0.3-0.7,0.7-0.7c0.4,0,0.7,0.3,0.7,0.7c0,0.4-0.3,0.7-0.7,0.7
						C937.8,467.2,937.5,466.9,937.5,466.5z M937.7,475.3v-7.1h1.1v7.1H937.7z"/>
					<path class="st25" d="M940.6,477.1l0.6-0.8c0.6,0.7,1.3,1,2.3,1c1.2,0,2.3-0.6,2.3-2.1v-1c-0.5,0.7-1.4,1.3-2.4,1.3
						c-1.8,0-3.1-1.4-3.1-3.7c0-2.3,1.3-3.7,3.1-3.7c1,0,1.8,0.5,2.4,1.2v-1.1h1.1v6.9c0,2.3-1.6,3.1-3.4,3.1
						C942.2,478.2,941.4,477.9,940.6,477.1z M945.7,473.3v-3.1c-0.4-0.6-1.2-1.1-2.1-1.1c-1.4,0-2.3,1.1-2.3,2.7
						c0,1.6,0.8,2.7,2.3,2.7C944.5,474.4,945.3,473.9,945.7,473.3z"/>
					<path class="st25" d="M953.4,475.3v-4.6c0-1.2-0.6-1.6-1.6-1.6c-0.9,0-1.7,0.5-2.1,1.1v5.2h-1.1v-7.1h1.1v1
						c0.5-0.6,1.5-1.2,2.5-1.2c1.5,0,2.3,0.7,2.3,2.3v5H953.4z"/>
					<path class="st25" d="M955.9,471.7c0-2.1,1.5-3.7,3.5-3.7c2.1,0,3.4,1.7,3.4,3.8v0.3h-5.7c0.1,1.3,1,2.4,2.5,2.4
						c0.8,0,1.6-0.3,2.2-0.9l0.5,0.7c-0.7,0.7-1.7,1.1-2.8,1.1C957.4,475.5,955.9,474,955.9,471.7z M959.4,468.9
						c-1.5,0-2.3,1.3-2.3,2.4h4.6C961.7,470.3,961,468.9,959.4,468.9z"/>
					<path class="st25" d="M969.3,475.3v-1.1c-0.5,0.7-1.4,1.2-2.4,1.2c-1.8,0-3.1-1.4-3.1-3.7c0-2.3,1.3-3.7,3.1-3.7
						c1,0,1.8,0.5,2.4,1.2v-3.8h1.1v9.8H969.3z M969.3,473.4v-3.2c-0.4-0.6-1.2-1.1-2.1-1.1c-1.4,0-2.3,1.2-2.3,2.7
						c0,1.6,0.8,2.7,2.3,2.7C968.1,474.5,969,474,969.3,473.4z"/>
					<path class="st25" d="M975.7,475.3v-9.8h1.1v3.8c0.6-0.8,1.4-1.2,2.4-1.2c1.8,0,3.1,1.5,3.1,3.7c0,2.3-1.3,3.7-3.1,3.7
						c-1,0-1.9-0.5-2.4-1.2v1.1H975.7z M978.9,474.5c1.4,0,2.3-1.2,2.3-2.7c0-1.6-0.8-2.7-2.3-2.7c-0.9,0-1.7,0.5-2.1,1.1v3.2
						C977.2,474,978,474.5,978.9,474.5z"/>
					<path class="st25" d="M983.5,477.1c0.2,0.1,0.4,0.1,0.6,0.1c0.5,0,0.8-0.2,1.1-0.7l0.5-1.1l-3-7.1h1.2l2.4,5.8l2.3-5.8h1.2
						l-3.5,8.5c-0.4,1-1.1,1.4-2.1,1.4c-0.2,0-0.6,0-0.8-0.1L983.5,477.1z"/>
				</g>
			</g>
		</g>
	</g>
</g>
</svg>
